<?xml version="1.0" encoding="iso-8859-1"?>
<!-- Uploaded to: SVG Repo, www.svgrepo.com, Generator: SVG Repo Mixer Tools -->
<svg height="800px" width="800px" version="1.1" id="Layer_1" xmlns="http://www.w3.org/2000/svg" xmlns:xlink="http://www.w3.org/1999/xlink" 
	 viewBox="0 0 512 512" xml:space="preserve">
<path style="fill:#3D6DEB;" d="M279.273,235.063V97.082c27.087,9.607,46.547,35.476,46.547,65.817
	c0,12.853,10.42,23.273,23.273,23.273c12.853,0,23.273-10.42,23.273-23.273c0-56.196-40.043-103.214-93.093-114.026V23.273
	C279.273,10.42,268.853,0,256,0c-12.853,0-23.273,10.42-23.273,23.273v25.601c-53.051,10.811-93.093,57.83-93.093,114.026
	s40.043,103.213,93.093,114.025v137.978c-27.089-9.607-46.547-35.476-46.547-65.817c0-12.853-10.42-23.273-23.273-23.273
	c-12.853,0-23.273,10.42-23.273,23.273c0,56.196,40.043,103.214,93.093,114.025v25.615C232.727,501.58,243.147,512,256,512
	c12.853,0,23.273-10.42,23.273-23.273v-25.615c53.051-10.811,93.093-57.83,93.093-114.026S332.323,245.874,279.273,235.063z
	 M186.18,162.9c0-30.341,19.458-56.21,46.547-65.817v131.634C205.638,219.109,186.18,193.24,186.18,162.9z M279.273,414.904V283.269
	c27.087,9.607,46.547,35.476,46.547,65.817C325.82,379.427,306.36,405.296,279.273,414.904z"/>
</svg>