<svg width="128" height="128" viewBox="0 0 128 128" fill="none" xmlns="http://www.w3.org/2000/svg" aria-labelledby="appIconTitle">
    <title id="appIconTitle">Inventory Application Icon</title>
    
    <rect x="4" y="4" width="120" height="120" rx="24" fill="url(#paint0_linear)"/>
    
    <g transform="translate(32, 32) scale(1)">
         <path fill="#FFFFFF" opacity="0.9" d="M32 60L4 46V18L32 32V60Z"/>
        <path fill="#E1E8F0" opacity="0.9" d="M60 18L32 32V60L60 46V18Z"/>
        <path fill="#F0F4F8" opacity="0.9" d="M32 4L60 18L32 32L4 18L32 4Z"/>
         <path fill="#2EBFA5" d="M32 18L19 25.5L22.5 31L32 25.5L41.5 31L45 25.5L32 18Z"/>
        <path fill="#2EBFA5" d="M32 28L22 34V42L32 48L42 42V34L32 28Z"/>
    </g>

    <defs>
        <linearGradient id="paint0_linear" x1="4" y1="4" x2="124" y2="124" gradientUnits="userSpaceOnUse">
            <stop stop-color="#1A3A5C"/>
            <stop offset="1" stop-color="#244D7A"/>
        </linearGradient>
    </defs>
</svg>